<svg xmlns="http://www.w3.org/2000/svg" viewBox="0 0 64 64">
  <rect width="64" height="64" rx="15" fill="#FF6F0F"/>
  <path d="M31.5 9c-3.7 3.2-6.8 8.1-9.7 13L14.9 34c-2.6 4.5-1.3 10.2 2.9 13.2l6.2 4.5c3 2.2 7.2.1 7.3-3.7l.2-39Z" fill="#fff"/>
  <path d="M32.5 9c3.7 3.2 6.8 8.1 9.7 13l6.9 12c2.6 4.5 1.3 10.2-2.9 13.2L40 51.7c-3 2.2-7.2.1-7.3-3.7l-.2-39Z" fill="#fff"/>
  <text x="32" y="38" fill="#FF6F0F" font-family="Arial, sans-serif" font-size="17" font-weight="700" text-anchor="middle">₩</text>
  <path d="M52 15v-5M49.5 12.5h5" fill="none" stroke="#fff" stroke-width="2.5" stroke-linecap="round"/>
</svg>
